SplineFontDB: 3.2
FontName: Sound_Mess
FullName: Sound_Mess
FamilyName: Sound_Mess
Weight: Regular
Copyright: Copyright (c) 2021
UComments: "2021-12-29: Created with FontForge (http://fontforge.org)"
Version: 001.000
ItalicAngle: 0
UnderlinePosition: -25.6
UnderlineWidth: 12.8
Ascent: 205
Descent: 51
InvalidEm: 0
LayerCount: 2
Layer: 0 0 "Back" 1
Layer: 1 0 "Fore" 0
XUID: [1021 739 -1243588870 9895223]
FSType: 0
OS2Version: 0
OS2_WeightWidthSlopeOnly: 0
OS2_UseTypoMetrics: 1
CreationTime: 1640798016
ModificationTime: 1640808732
PfmFamily: 17
TTFWeight: 400
TTFWidth: 5
LineGap: 23
VLineGap: 0
OS2TypoAscent: 0
OS2TypoAOffset: 1
OS2TypoDescent: 0
OS2TypoDOffset: 1
OS2TypoLinegap: 23
OS2WinAscent: 0
OS2WinAOffset: 1
OS2WinDescent: 0
OS2WinDOffset: 1
HheadAscent: 0
HheadAOffset: 1
HheadDescent: 0
HheadDOffset: 1
OS2Vendor: 'PfEd'
MarkAttachClasses: 1
DEI: 91125
LangName: 1033
Encoding: ISO8859-1
UnicodeInterp: none
NameList: AGL For New Fonts
DisplaySize: -48
AntiAlias: 1
FitToEm: 0
WinInfo: 0 27 10
BeginPrivate: 0
EndPrivate
BeginChars: 256 53

StartChar: A
Encoding: 65 65 0
Width: 256
Flags: HW
LayerCount: 2
Fore
SplineSet
171 -27 m 1
 157 23 143 73 128 123 c 1
 114 73 100 23 85 -27 c 1
 114 -27 142 -27 171 -27 c 1
192 -51 m 1
 149 -51 107 -51 64 -51 c 1
 85 24 107 98 128 173 c 1
 149 98 171 24 192 -51 c 1
EndSplineSet
EndChar

StartChar: B
Encoding: 66 66 1
Width: 256
Flags: HW
LayerCount: 2
Fore
SplineSet
95 -9 m 1
 95 48 95 105 95 162 c 1
 80 133 65 104 50 76 c 1
 65 48 80 19 95 -9 c 1
113 -30 m 1
 137 -16 160 -2 182 13 c 1
 159 27 136 41 113 55 c 1
 113 27 113 -2 113 -30 c 1
113 98 m 1
 137 112 160 126 182 141 c 1
 159 155 136 169 113 183 c 1
 113 155 113 126 113 98 c 1
102 -51 m 1
 80 -8 58 35 35 77 c 1
 48 102 61 126 74 151 c 2
 83 169 93 187 102 205 c 1
 137 184 171 163 205 141 c 1
 171 119 137 98 102 77 c 1
 137 56 171 35 205 13 c 1
 171 -9 137 -30 102 -51 c 1
EndSplineSet
EndChar

StartChar: C
Encoding: 67 67 2
Width: 256
Flags: HW
LayerCount: 2
Fore
SplineSet
78 154 m 1050
121 -38 m 1
 144 -29 166 -19 189 -10 c 1
 166 -1 144 9 121 18 c 1
 121 -1 121 -19 121 -38 c 1
102 -14 m 1
 102 38 102 89 102 141 c 1
 88 115 73 89 57 64 c 1
 72 38 87 12 102 -14 c 1
121 110 m 1
 144 119 166 129 189 138 c 1
 166 147 143 156 121 165 c 1
 121 147 121 128 121 110 c 1
110 32 m 1
 144 18 178 4 212 -10 c 1
 178 -23 144 -37 110 -51 c 1
 87 -13 64 25 42 64 c 1
 64 103 87 141 110 179 c 1
 144 165 178 151 212 138 c 1
 178 124 144 110 110 96 c 1
 110 75 110 53 110 32 c 1
EndSplineSet
EndChar

StartChar: D
Encoding: 68 68 3
Width: 256
Flags: HW
LayerCount: 2
Fore
SplineSet
95 -2 m 1
 115 24 135 49 156 74 c 1
 135 99 115 124 95 150 c 1
 95 99 95 49 95 -2 c 1
77 -51 m 1
 77 34 77 120 77 205 c 1
 111 162 145 120 179 77 c 1
 145 34 111 -8 77 -51 c 1
EndSplineSet
EndChar

StartChar: E
Encoding: 69 69 4
Width: 256
Flags: HW
LayerCount: 2
Fore
SplineSet
81 -32 m 1
 103 -26 125 -20 147 -13 c 1
 125 -6 103 0 81 7 c 1
 81 -6 81 -19 81 -32 c 1
81 57 m 1
 103 64 125 70 147 77 c 1
 125 84 103 90 81 97 c 1
 81 84 81 70 81 57 c 1
64 38 m 1
 64 64 64 89 64 115 c 1
 107 102 149 90 192 77 c 1
 149 64 106 51 64 38 c 1
64 -51 m 1
 64 -25 64 0 64 26 c 1
 106 13 149 -0 192 -13 c 1
 149 -26 107 -38 64 -51 c 1
81 146 m 1
 103 153 125 159 147 166 c 1
 125 173 103 179 81 186 c 1
 81 173 81 159 81 146 c 1
64 128 m 1
 64 154 64 179 64 205 c 1
 107 192 150 179 192 166 c 1
 149 153 107 141 64 128 c 1
EndSplineSet
EndChar

StartChar: F
Encoding: 70 70 5
Width: 256
Flags: HW
LayerCount: 2
Fore
SplineSet
70 158 m 1
 76 102 l 1
 81 46 l 1
 84 83 88 121 91 158 c 1
 84 158 77 158 70 158 c 1
55 179 m 1
 72 179 88 179 105 179 c 1
 96 103 88 26 80 -51 c 1
 72 26 64 103 55 179 c 1
130 62 m 1
 154 69 l 1
 178 75 l 1
 154 82 l 1
 130 88 l 1
 130 79 130 71 130 62 c 1
118 51 m 1
 118 68 118 85 118 102 c 1
 149 93 180 85 211 76 c 1
 165 63 l 1
 118 51 l 1
136 139 m 1
 158 145 180 151 202 157 c 1
 180 163 158 169 136 175 c 1
 136 163 136 151 136 139 c 1
118 120 m 1
 118 144 118 167 118 191 c 1
 160 179 203 167 246 156 c 1
 203 144 161 132 118 120 c 1
EndSplineSet
EndChar

StartChar: G
Encoding: 71 71 6
Width: 256
Flags: HW
LayerCount: 2
Fore
SplineSet
178 44 m 1
 184 53 l 1
 189 63 l 1
 182 63 174 63 167 63 c 1
 171 57 174 50 178 44 c 1
189 35 m 1
 197 35 205 35 213 35 c 1
 209 42 205 49 201 56 c 1
 197 49 193 42 189 35 c 1
116 94 m 1
 123 106 131 118 138 130 c 1
 118 130 l 1
 98 131 l 1
 104 119 110 106 116 94 c 1
52 44 m 1
 71 44 90 44 109 44 c 1
 100 63 90 83 81 102 c 1
 71 83 61 64 52 44 c 1
74 15 m 1
 91 2 108 -11 126 -24 c 1
 144 -11 161 2 178 15 c 1
 143 15 109 15 74 15 c 1
201 69 m 1
 212 49 l 1
 224 30 l 1
 192 5 159 -19 126 -43 c 1
 93 -19 60 5 28 30 c 1
 46 65 64 101 82 137 c 1
 98 106 l 1
 82 137 l 1
 117 136 l 1
 153 136 l 1
 140 116 127 95 113 75 c 1
 136 30 l 1
 177 30 l 1
 178 31 l 1
 170 43 164 55 157 68 c 1
 179 68 l 1
 201 69 l 1
EndSplineSet
EndChar

StartChar: H
Encoding: 72 72 7
Width: 256
Flags: HW
LayerCount: 2
Fore
SplineSet
146 78 m 1
 140 89 134 99 128 110 c 1
 118 94 l 1
 109 78 l 1
 121 78 134 78 146 78 c 1
161 68 m 1
 139 68 116 68 94 68 c 1
 105 88 116 108 128 127 c 1
 139 107 150 88 161 68 c 1
170 175 m 1
 175 131 181 86 186 42 c 1
 191 86 197 131 202 175 c 1
 191 175 181 175 170 175 c 1
148 205 m 1
 173 205 199 205 224 205 c 1
 211 120 199 34 186 -51 c 1
 173 34 161 120 148 205 c 1
52 175 m 1
 57 131 63 86 68 42 c 1
 73 86 79 131 84 175 c 1
 73 175 63 175 52 175 c 1
30 205 m 1
 55 205 81 205 106 205 c 1
 93 120 81 34 68 -51 c 1
 55 34 43 120 30 205 c 1
EndSplineSet
EndChar

StartChar: I
Encoding: 73 73 8
Width: 256
Flags: HW
LayerCount: 2
Fore
SplineSet
322 -78 m 1050
143 -41 m 1
 136 -4 l 1
 128 32 l 1
 121 -4 l 1
 113 -41 l 1
 123 -41 133 -41 143 -41 c 1
158 -55 m 1
 138 -55 118 -55 98 -55 c 1
 108 -12 118 32 128 75 c 1
 138 32 148 -12 158 -55 c 1
143 191 m 1
 133 191 123 191 113 191 c 1
 121 154 l 1
 128 117 l 1
 136 154 l 1
 143 191 l 1
158 205 m 1
 148 162 138 118 128 75 c 1
 118 118 108 162 98 205 c 1
 118 205 138 205 158 205 c 1
EndSplineSet
EndChar

StartChar: J
Encoding: 74 74 9
Width: 256
InSpiro: 1
Flags: HW
LayerCount: 2
Fore
SplineSet
316 -73 m 1050
68 9 m 1
 58 23 l 1
 49 37 l 1
 48 20 l 1
 48 3 l 1
 55 5 61 7 68 9 c 1
83 6 m 1
 62 -0 l 1
 42 -7 l 1
 43 13 45 33 46 53 c 1
 58 37 70 21 83 6 c 1
73 -33 m 1
 103 -36 l 1
 133 -40 l 1
 119 -31 105 -22 91 -13 c 1
 85 -20 79 -26 73 -33 c 1
55 -42 m 1
 67 -29 79 -16 91 -3 c 1
 114 -19 138 -35 161 -51 c 1
 108 -47 l 1
 55 -42 l 1
186 178 m 1
 176 178 167 178 157 178 c 1
 162 132 166 85 171 39 c 1
 179 109 l 1
 186 178 l 1
203 203 m 1
 192 119 182 35 171 -49 c 1
 161 35 151 119 140 203 c 1
 161 203 182 203 203 203 c 1
EndSplineSet
EndChar

StartChar: K
Encoding: 75 75 10
Width: 256
Flags: HW
LayerCount: 2
Fore
SplineSet
71 194 m 1
 61 194 52 194 42 194 c 1
 50 127 l 1
 57 60 l 1
 62 105 66 149 71 194 c 1
94 203 m 1
 81 135 69 67 57 -2 c 1
 45 67 33 135 20 203 c 1
 45 203 69 203 94 203 c 1
115 75 m 1
 124 70 132 64 141 59 c 1
 146 72 152 84 157 97 c 1
 143 90 129 82 115 75 c 1
88 75 m 1
 120 93 153 111 187 128 c 1
 174 97 162 67 149 36 c 1
 129 49 108 62 88 75 c 1
128 -15 m 1
 156 -21 l 1
 184 -28 l 1
 172 -19 161 -9 150 1 c 1
 143 -4 135 -10 128 -15 c 1
95 -18 m 1
 113 -5 131 7 149 20 c 1
 177 -4 204 -27 232 -51 c 1
 186 -40 140 -29 95 -18 c 1
EndSplineSet
EndChar

StartChar: L
Encoding: 76 76 11
Width: 256
Flags: HW
LayerCount: 2
Fore
SplineSet
119 -33 m 1
 143 -28 167 -23 190 -18 c 1
 154 -11 l 1
 119 -3 l 1
 119 -13 119 -23 119 -33 c 1
106 -46 m 1
 106 -28 106 -10 106 8 c 1
 150 -1 193 -10 236 -19 c 1
 193 -28 150 -37 106 -46 c 1
65 173 m 1
 73 93 l 1
 82 14 l 1
 90 93 l 1
 99 173 l 1
 88 173 76 173 65 173 c 1
50 195 m 1
 71 195 93 195 114 195 c 1
 103 114 93 32 82 -49 c 1
 71 32 61 114 50 195 c 1
EndSplineSet
EndChar

StartChar: M
Encoding: 77 77 12
Width: 256
Flags: HW
LayerCount: 2
Fore
SplineSet
165 -26 m 1
 184 -26 204 -26 223 -26 c 1
 213 -3 203 20 194 44 c 1
 184 21 174 -2 165 -26 c 1
134 -51 m 1
 154 -2 174 47 194 96 c 1
 214 47 234 -2 254 -51 c 1
 214 -51 174 -51 134 -51 c 1
109 67 m 1
 115 49 121 32 127 14 c 1
 133 32 139 49 145 67 c 1
 133 67 121 67 109 67 c 1
86 91 m 1
 113 91 141 91 168 91 c 1
 155 49 141 8 127 -33 c 1
 114 9 100 50 86 91 c 1
31 -26 m 1
 50 -26 70 -26 89 -26 c 1
 79 -3 69 20 60 44 c 1
 50 21 40 -2 31 -26 c 1
0 -51 m 1
 20 -2 40 47 60 96 c 1
 80 46 100 -3 121 -51 c 1
 81 -51 40 -51 0 -51 c 1
EndSplineSet
EndChar

StartChar: N
Encoding: 78 78 13
Width: 256
Flags: HW
LayerCount: 2
Fore
SplineSet
138 -14 m 1
 145 -10 l 1
 151 -6 l 1
 140 25 130 55 119 86 c 1
 128 36 l 1
 138 -14 l 1
137 -51 m 1
 121 31 105 112 88 193 c 1
 115 118 142 43 169 -33 c 1
 158 -39 148 -45 137 -51 c 1
162 161 m 1
 167 127 171 92 176 58 c 1
 184 110 l 1
 191 161 l 1
 181 161 172 161 162 161 c 1
142 193 m 1
 165 193 187 193 210 193 c 1
 199 113 187 33 176 -47 c 1
 165 33 153 113 142 193 c 1
63 -21 m 1
 74 -21 85 -21 96 -21 c 1
 87 37 l 1
 79 95 l 1
 74 56 68 18 63 -21 c 1
46 -47 m 1
 57 33 69 113 80 193 c 1
 91 113 103 33 114 -47 c 1
 91 -47 69 -47 46 -47 c 1
EndSplineSet
EndChar

StartChar: O
Encoding: 79 79 14
Width: 256
Flags: HW
LayerCount: 2
Fore
SplineSet
66 5 m 1
 107 5 148 5 189 5 c 1
 168 38 148 71 128 105 c 1
 107 72 87 38 66 5 c 1
37 -11 m 1
 67 39 97 89 128 138 c 1
 159 89 189 39 219 -11 c 1
 158 -11 98 -11 37 -11 c 1
EndSplineSet
EndChar

StartChar: P
Encoding: 80 80 15
Width: 256
Flags: HW
LayerCount: 2
Fore
SplineSet
125 -31 m 1
 116 13 108 57 100 101 c 1
 91 57 83 13 75 -31 c 1
 92 -31 108 -31 125 -31 c 1
137 -53 m 1
 112 -53 87 -53 62 -53 c 1
 75 13 87 79 100 145 c 1
 112 79 124 13 137 -53 c 1
147 81 m 1
 171 97 196 114 220 130 c 1
 196 147 172 164 147 180 c 1
 147 147 147 114 147 81 c 1
135 56 m 1
 135 106 135 155 135 205 c 1
 172 181 208 156 244 131 c 1
 208 106 171 81 135 56 c 1
EndSplineSet
EndChar

StartChar: Q
Encoding: 81 81 16
Width: 256
Flags: HW
LayerCount: 2
Fore
SplineSet
48 -4 m 1
 68 -12 l 1
 87 -21 l 1
 95 -2 l 1
 104 16 l 1
 85 9 67 3 48 -4 c 1
33 -4 m 1
 61 6 88 16 116 26 c 1
 107 8 99 -11 91 -30 c 1
 72 -21 52 -13 33 -4 c 1
168 16 m 1
 179 56 189 95 200 135 c 1
 163 124 125 112 88 101 c 1
 115 73 142 45 168 16 c 1
176 -17 m 1
 136 26 96 68 56 110 c 1
 112 127 167 143 223 160 c 1
 208 101 192 42 176 -17 c 1
EndSplineSet
EndChar

StartChar: R
Encoding: 82 82 17
Width: 256
Flags: HW
LayerCount: 2
Fore
SplineSet
122 25 m 1
 134 -5 l 1
 147 -34 l 1
 168 -31 189 -29 210 -26 c 1
 180 -9 151 8 122 25 c 1
104 43 m 1
 147 17 191 -8 235 -33 c 1
 204 -37 172 -41 141 -45 c 1
 128 -16 116 13 104 43 c 1
87 -40 m 1
 78 36 l 1
 68 111 l 1
 62 61 56 10 50 -40 c 1
 62 -40 75 -40 87 -40 c 1
96 -51 m 1
 78 -51 59 -51 41 -51 c 1
 50 24 59 99 68 173 c 1
 77 98 87 24 96 -51 c 1
109 74 m 1
 127 91 146 107 165 123 c 1
 146 140 128 156 109 173 c 1
 109 140 109 107 109 74 c 1
100 50 m 1
 100 99 100 148 100 197 c 1
 128 172 156 148 184 124 c 1
 156 99 128 75 100 50 c 1
EndSplineSet
EndChar

StartChar: S
Encoding: 83 83 18
Width: 265
Flags: HW
LayerCount: 2
Fore
SplineSet
177 101 m 1
 197 117 216 133 235 150 c 1
 189 147 142 143 96 140 c 1
 122 126 149 113 177 101 c 1
181 86 m 1
 140 105 99 125 59 145 c 1
 92 124 125 103 158 82 c 1
 140 66 122 51 103 36 c 1
 88 72 74 109 59 145 c 1
 163 152 l 1
 267 160 l 1
 238 135 210 111 181 86 c 1
144 82 m 1
 121 96 99 110 77 124 c 1
 87 99 97 75 107 50 c 1
 119 61 131 72 144 82 c 1
130 27 m 1
 153 13 175 -1 198 -15 c 1
 188 10 178 34 168 59 c 1
 155 48 143 38 130 27 c 1
116 27 m 1
 135 42 153 57 171 73 c 1
 186 37 200 0 215 -36 c 1
 183 -14 150 7 116 27 c 1
97 8 m 1
 78 -8 59 -25 40 -41 c 1
 86 -38 133 -34 179 -31 c 1
 152 -18 125 -5 97 8 c 1
93 23 m 1
 133 3 174 -17 215 -36 c 1
 111 -43 l 1
 7 -51 l 1
 36 -26 64 -2 93 23 c 1
EndSplineSet
EndChar

StartChar: T
Encoding: 84 84 19
Width: 256
Flags: HW
LayerCount: 2
Fore
SplineSet
161 153 m 1
 179 157 196 161 214 165 c 1
 187 171 l 1
 161 176 l 1
 161 168 161 161 161 153 c 1
144 140 m 1
 144 156 144 173 144 189 c 1
 181 181 218 173 255 165 c 1
 200 152 l 1
 144 140 l 1
94 153 m 1
 94 161 94 168 94 176 c 1
 68 171 l 1
 41 165 l 1
 59 161 76 157 94 153 c 1
111 140 m 1
 74 148 37 156 0 165 c 1
 37 173 74 181 111 189 c 1
 111 173 111 156 111 140 c 1
114 97 m 1
 121 57 l 1
 127 17 l 1
 131 44 135 70 139 97 c 1
 131 97 122 97 114 97 c 1
101 122 m 1
 119 122 137 122 155 122 c 1
 145 65 136 7 128 -51 c 1
 119 6 110 64 101 122 c 1
EndSplineSet
EndChar

StartChar: U
Encoding: 85 85 20
Width: 256
Flags: HW
LayerCount: 2
Fore
SplineSet
207 91 m 1
 187 64 167 38 147 12 c 1
 171 5 l 1
 195 -3 l 1
 199 28 203 60 207 91 c 1
220 123 m 1
 211 53 l 1
 203 -17 l 1
 179 -10 155 -2 131 5 c 1
 161 44 191 83 220 123 c 1
178 -21 m 1
 148 -21 118 -21 88 -21 c 1
 103 -28 118 -35 133 -43 c 1
 148 -35 163 -28 178 -21 c 1
203 -17 m 1
 180 -29 156 -40 132 -51 c 1
 108 -40 84 -28 60 -17 c 1
 108 -17 155 -17 203 -17 c 1
56 91 m 1
 60 60 64 28 68 -3 c 1
 92 5 l 1
 116 12 l 1
 96 38 76 64 56 91 c 1
43 123 m 1
 72 84 102 44 131 5 c 1
 107 -2 84 -10 60 -17 c 1
 51 53 l 1
 43 123 l 1
EndSplineSet
EndChar

StartChar: V
Encoding: 86 86 21
Width: 256
Flags: HW
LayerCount: 2
Fore
SplineSet
90 124 m 1
 103 80 115 36 128 -8 c 1
 141 36 153 80 165 124 c 1
 140 124 115 124 90 124 c 1
72 145 m 1
 109 145 147 145 184 145 c 1
 165 80 147 14 128 -51 c 1
 109 14 91 80 72 145 c 1
EndSplineSet
EndChar

StartChar: W
Encoding: 87 87 22
Width: 256
Flags: HW
LayerCount: 2
Fore
SplineSet
165 71 m 1
 174 47 184 23 194 0 c 1
 203 24 213 48 223 71 c 1
 204 71 184 71 165 71 c 1
134 96 m 1
 174 96 214 96 254 96 c 1
 234 47 214 -2 194 -51 c 1
 174 -2 154 47 134 96 c 1
109 -22 m 1
 121 -22 133 -22 145 -22 c 1
 139 -4 133 13 127 31 c 1
 121 13 115 -4 109 -22 c 1
86 -46 m 1
 100 -5 114 36 127 78 c 1
 141 37 155 -4 168 -46 c 1
 141 -46 113 -46 86 -46 c 1
31 71 m 1
 40 47 50 23 60 0 c 1
 69 24 79 48 89 71 c 1
 70 71 50 71 31 71 c 1
0 96 m 1
 40 96 81 96 121 96 c 1
 100 47 80 -2 60 -51 c 1
 40 -2 20 47 0 96 c 1
EndSplineSet
EndChar

StartChar: X
Encoding: 88 88 23
Width: 256
Flags: HW
LayerCount: 2
Fore
SplineSet
153 8 m 1
 174 -1 194 -11 214 -21 c 1
 204 -1 194 19 184 39 c 1
 174 29 163 18 153 8 c 1
100 8 m 1
 85 24 l 1
 69 39 l 1
 60 19 50 -1 40 -21 c 1
 60 -11 80 -1 100 8 c 1
153 119 m 1
 169 104 l 1
 184 88 l 1
 194 108 204 128 214 148 c 1
 193 139 173 129 153 119 c 1
100 119 m 1
 80 129 60 139 40 148 c 1
 50 128 60 108 69 88 c 1
 79 98 90 109 100 119 c 1
127 6 m 1
 146 26 165 45 184 64 c 1
 203 27 222 -11 240 -49 c 1
 203 -30 165 -12 127 6 c 1
127 6 m 1
 89 -12 51 -30 14 -49 c 1
 33 -12 51 26 69 64 c 1
 88 45 108 25 127 6 c 1
184 64 m 1
 165 83 146 102 127 122 c 1
 164 140 202 158 240 176 c 1
 221 139 203 101 184 64 c 1
69 64 m 1
 51 102 33 139 14 176 c 1
 51 158 89 140 127 122 c 1
 108 103 88 83 69 64 c 1
EndSplineSet
EndChar

StartChar: Y
Encoding: 89 89 24
Width: 256
Flags: HW
LayerCount: 2
Fore
SplineSet
166 118 m 1
 182 120 l 1
 199 123 l 1
 208 138 l 1
 216 153 l 1
 200 141 183 129 166 118 c 1
90 118 m 1
 73 129 56 141 40 153 c 1
 48 138 l 1
 57 123 l 1
 74 120 l 1
 90 118 l 1
118 -30 m 1
 125 -30 132 -30 139 -30 c 1
 133 15 l 1
 128 60 l 1
 125 30 121 0 118 -30 c 1
107 -51 m 1
 114 0 121 51 128 102 c 1
 135 51 142 0 149 -51 c 1
 135 -51 121 -51 107 -51 c 1
128 102 m 1
 86 109 l 1
 44 115 l 1
 29 140 15 166 0 191 c 1
 42 161 85 131 128 102 c 1
128 102 m 1
 171 131 214 161 256 191 c 1
 241 166 227 140 212 115 c 1
 170 109 l 1
 128 102 l 1
EndSplineSet
EndChar

StartChar: Z
Encoding: 90 90 25
Width: 256
Flags: HW
LayerCount: 2
Fore
SplineSet
87 101 m 1
 115 114 142 127 169 140 c 1
 123 143 76 147 30 150 c 1
 49 134 68 117 87 101 c 1
83 86 m 1
 54 111 26 135 -3 160 c 1
 101 152 l 1
 205 145 l 1
 165 125 124 105 83 86 c 1
121 82 m 1
 133 71 145 60 158 50 c 1
 168 75 178 99 188 124 c 1
 165 110 143 96 121 82 c 1
106 82 m 1
 140 102 173 123 205 145 c 1
 190 109 176 72 161 36 c 1
 143 52 125 67 106 82 c 1
134 27 m 1
 121 37 109 48 97 59 c 1
 87 34 77 10 67 -15 c 1
 89 -1 111 13 134 27 c 1
148 27 m 1
 115 6 82 -15 50 -36 c 1
 91 -17 131 3 171 23 c 1
 200 -2 228 -26 257 -51 c 1
 153 -43 l 1
 50 -36 l 1
 64 1 78 37 93 73 c 1
 112 58 130 43 148 27 c 1
167 8 m 1
 139 -4 112 -17 86 -31 c 1
 132 -34 179 -38 225 -41 c 1
 206 -24 187 -8 167 8 c 1
EndSplineSet
EndChar

StartChar: a
Encoding: 97 97 26
Width: 256
Flags: HW
LayerCount: 2
Fore
SplineSet
171 -27 m 1
 157 23 143 73 128 123 c 1
 114 73 100 23 85 -27 c 1
 114 -27 142 -27 171 -27 c 1
192 -51 m 1
 149 -51 107 -51 64 -51 c 1
 85 24 107 98 128 173 c 1
 149 98 171 24 192 -51 c 1
EndSplineSet
Validated: 1
EndChar

StartChar: b
Encoding: 98 98 27
Width: 256
Flags: HW
LayerCount: 2
Fore
SplineSet
95 -9 m 1
 95 48 95 105 95 162 c 1
 80 133 65 104 50 76 c 1
 65 48 80 19 95 -9 c 1
113 -30 m 1
 137 -16 160 -2 182 13 c 1
 159 27 136 41 113 55 c 1
 113 27 113 -2 113 -30 c 1
113 98 m 1
 137 112 160 126 182 141 c 1
 159 155 136 169 113 183 c 1
 113 155 113 126 113 98 c 1
102 -51 m 1
 80 -8 58 35 35 77 c 1
 48 102 61 126 74 151 c 2
 83 169 93 187 102 205 c 1
 137 184 171 163 205 141 c 1
 171 119 137 98 102 77 c 1
 137 56 171 35 205 13 c 1
 171 -9 137 -30 102 -51 c 1
EndSplineSet
Validated: 1
EndChar

StartChar: c
Encoding: 99 99 28
Width: 256
Flags: HW
LayerCount: 2
Fore
SplineSet
78 154 m 1050
121 -38 m 1
 144 -29 166 -19 189 -10 c 1
 166 -1 144 9 121 18 c 1
 121 -1 121 -19 121 -38 c 1
102 -14 m 1
 102 38 102 89 102 141 c 1
 88 115 73 89 57 64 c 1
 72 38 87 12 102 -14 c 1
121 110 m 1
 144 119 166 129 189 138 c 1
 166 147 143 156 121 165 c 1
 121 147 121 128 121 110 c 1
110 32 m 1
 144 18 178 4 212 -10 c 1
 178 -23 144 -37 110 -51 c 1
 87 -13 64 25 42 64 c 1
 64 103 87 141 110 179 c 1
 144 165 178 151 212 138 c 1
 178 124 144 110 110 96 c 1
 110 75 110 53 110 32 c 1
EndSplineSet
Validated: 1
EndChar

StartChar: d
Encoding: 100 100 29
Width: 256
Flags: HW
LayerCount: 2
Fore
SplineSet
95 -2 m 1
 115 24 135 49 156 74 c 1
 135 99 115 124 95 150 c 1
 95 99 95 49 95 -2 c 1
77 -51 m 1
 77 34 77 120 77 205 c 1
 111 162 145 120 179 77 c 1
 145 34 111 -8 77 -51 c 1
EndSplineSet
Validated: 1
EndChar

StartChar: e
Encoding: 101 101 30
Width: 256
Flags: HW
LayerCount: 2
Fore
SplineSet
81 -32 m 1
 103 -26 125 -20 147 -13 c 1
 125 -6 103 0 81 7 c 1
 81 -6 81 -19 81 -32 c 1
81 57 m 1
 103 64 125 70 147 77 c 1
 125 84 103 90 81 97 c 1
 81 84 81 70 81 57 c 1
64 38 m 1
 64 64 64 89 64 115 c 1
 107 102 149 90 192 77 c 1
 149 64 106 51 64 38 c 1
64 -51 m 1
 64 -25 64 0 64 26 c 1
 106 13 149 -0 192 -13 c 1
 149 -26 107 -38 64 -51 c 1
81 146 m 1
 103 153 125 159 147 166 c 1
 125 173 103 179 81 186 c 1
 81 173 81 159 81 146 c 1
64 128 m 1
 64 154 64 179 64 205 c 1
 107 192 150 179 192 166 c 1
 149 153 107 141 64 128 c 1
EndSplineSet
Validated: 1
EndChar

StartChar: f
Encoding: 102 102 31
Width: 256
Flags: HW
LayerCount: 2
Fore
SplineSet
70 158 m 1
 76 102 l 1
 81 46 l 1
 84 83 88 121 91 158 c 1
 84 158 77 158 70 158 c 1
55 179 m 1
 72 179 88 179 105 179 c 1
 96 103 88 26 80 -51 c 1
 72 26 64 103 55 179 c 1
130 62 m 1
 154 69 l 1
 178 75 l 1
 154 82 l 1
 130 88 l 1
 130 79 130 71 130 62 c 1
118 51 m 1
 118 68 118 85 118 102 c 1
 149 93 180 85 211 76 c 1
 165 63 l 1
 118 51 l 1
136 139 m 1
 158 145 180 151 202 157 c 1
 180 163 158 169 136 175 c 1
 136 163 136 151 136 139 c 1
118 120 m 1
 118 144 118 167 118 191 c 1
 160 179 203 167 246 156 c 1
 203 144 161 132 118 120 c 1
EndSplineSet
Validated: 1
EndChar

StartChar: g
Encoding: 103 103 32
Width: 256
Flags: HW
LayerCount: 2
Fore
SplineSet
178 44 m 1
 184 53 l 1
 189 63 l 1
 182 63 174 63 167 63 c 1
 171 57 174 50 178 44 c 1
189 35 m 1
 197 35 205 35 213 35 c 1
 209 42 205 49 201 56 c 1
 197 49 193 42 189 35 c 1
116 94 m 1
 123 106 131 118 138 130 c 1
 118 130 l 1
 98 131 l 1
 104 119 110 106 116 94 c 1
52 44 m 1
 71 44 90 44 109 44 c 1
 100 63 90 83 81 102 c 1
 71 83 61 64 52 44 c 1
74 15 m 1
 91 2 108 -11 126 -24 c 1
 144 -11 161 2 178 15 c 1
 143 15 109 15 74 15 c 1
201 69 m 1
 212 49 l 1
 224 30 l 1
 192 5 159 -19 126 -43 c 1
 93 -19 60 5 28 30 c 1
 46 65 64 101 82 137 c 1
 98 106 l 1
 82 137 l 1
 117 136 l 1
 153 136 l 1
 140 116 127 95 113 75 c 1
 136 30 l 1
 177 30 l 1
 178 31 l 1
 170 43 164 55 157 68 c 1
 179 68 l 1
 201 69 l 1
EndSplineSet
Validated: 5
EndChar

StartChar: h
Encoding: 104 104 33
Width: 256
Flags: HW
LayerCount: 2
Fore
SplineSet
146 78 m 1
 140 89 134 99 128 110 c 1
 118 94 l 1
 109 78 l 1
 121 78 134 78 146 78 c 1
161 68 m 1
 139 68 116 68 94 68 c 1
 105 88 116 108 128 127 c 1
 139 107 150 88 161 68 c 1
170 175 m 1
 175 131 181 86 186 42 c 1
 191 86 197 131 202 175 c 1
 191 175 181 175 170 175 c 1
148 205 m 1
 173 205 199 205 224 205 c 1
 211 120 199 34 186 -51 c 1
 173 34 161 120 148 205 c 1
52 175 m 1
 57 131 63 86 68 42 c 1
 73 86 79 131 84 175 c 1
 73 175 63 175 52 175 c 1
30 205 m 1
 55 205 81 205 106 205 c 1
 93 120 81 34 68 -51 c 1
 55 34 43 120 30 205 c 1
EndSplineSet
Validated: 1
EndChar

StartChar: i
Encoding: 105 105 34
Width: 256
Flags: HW
LayerCount: 2
Fore
SplineSet
322 -78 m 1050
143 -41 m 1
 136 -4 l 1
 128 32 l 1
 121 -4 l 1
 113 -41 l 1
 123 -41 133 -41 143 -41 c 1
158 -55 m 1
 138 -55 118 -55 98 -55 c 1
 108 -12 118 32 128 75 c 1
 138 32 148 -12 158 -55 c 1
143 191 m 1
 133 191 123 191 113 191 c 1
 121 154 l 1
 128 117 l 1
 136 154 l 1
 143 191 l 1
158 205 m 1
 148 162 138 118 128 75 c 1
 118 118 108 162 98 205 c 1
 118 205 138 205 158 205 c 1
EndSplineSet
Validated: 5
EndChar

StartChar: j
Encoding: 106 106 35
Width: 256
Flags: HW
LayerCount: 2
Fore
SplineSet
316 -73 m 1050
68 9 m 1
 58 23 l 1
 49 37 l 1
 48 20 l 1
 48 3 l 1
 55 5 61 7 68 9 c 1
83 6 m 1
 62 -0 l 1
 42 -7 l 1
 43 13 45 33 46 53 c 1
 58 37 70 21 83 6 c 1
73 -33 m 1
 103 -36 l 1
 133 -40 l 1
 119 -31 105 -22 91 -13 c 1
 85 -20 79 -26 73 -33 c 1
55 -42 m 1
 67 -29 79 -16 91 -3 c 1
 114 -19 138 -35 161 -51 c 1
 108 -47 l 1
 55 -42 l 1
186 178 m 1
 176 178 167 178 157 178 c 1
 162 132 166 85 171 39 c 1
 179 109 l 1
 186 178 l 1
203 203 m 1
 192 119 182 35 171 -49 c 1
 161 35 151 119 140 203 c 1
 161 203 182 203 203 203 c 1
EndSplineSet
Validated: 1
EndChar

StartChar: k
Encoding: 107 107 36
Width: 256
Flags: HW
LayerCount: 2
Fore
SplineSet
71 194 m 1
 61 194 52 194 42 194 c 1
 50 127 l 1
 57 60 l 1
 62 105 66 149 71 194 c 1
94 203 m 1
 81 135 69 67 57 -2 c 1
 45 67 33 135 20 203 c 1
 45 203 69 203 94 203 c 1
115 75 m 1
 124 70 132 64 141 59 c 1
 146 72 152 84 157 97 c 1
 143 90 129 82 115 75 c 1
88 75 m 1
 120 93 153 111 187 128 c 1
 174 97 162 67 149 36 c 1
 129 49 108 62 88 75 c 1
128 -15 m 1
 156 -21 l 1
 184 -28 l 1
 172 -19 161 -9 150 1 c 1
 143 -4 135 -10 128 -15 c 1
95 -18 m 1
 113 -5 131 7 149 20 c 1
 177 -4 204 -27 232 -51 c 1
 186 -40 140 -29 95 -18 c 1
EndSplineSet
Validated: 1
EndChar

StartChar: l
Encoding: 108 108 37
Width: 256
Flags: HW
LayerCount: 2
Fore
SplineSet
119 -33 m 1
 143 -28 167 -23 190 -18 c 1
 154 -11 l 1
 119 -3 l 1
 119 -13 119 -23 119 -33 c 1
106 -46 m 1
 106 -28 106 -10 106 8 c 1
 150 -1 193 -10 236 -19 c 1
 193 -28 150 -37 106 -46 c 1
65 173 m 1
 73 93 l 1
 82 14 l 1
 90 93 l 1
 99 173 l 1
 88 173 76 173 65 173 c 1
50 195 m 1
 71 195 93 195 114 195 c 1
 103 114 93 32 82 -49 c 1
 71 32 61 114 50 195 c 1
EndSplineSet
Validated: 1
EndChar

StartChar: m
Encoding: 109 109 38
Width: 256
Flags: HW
LayerCount: 2
Fore
SplineSet
165 -26 m 1
 184 -26 204 -26 223 -26 c 1
 213 -3 203 20 194 44 c 1
 184 21 174 -2 165 -26 c 1
134 -51 m 1
 154 -2 174 47 194 96 c 1
 214 47 234 -2 254 -51 c 1
 214 -51 174 -51 134 -51 c 1
109 67 m 1
 115 49 121 32 127 14 c 1
 133 32 139 49 145 67 c 1
 133 67 121 67 109 67 c 1
86 91 m 1
 113 91 141 91 168 91 c 1
 155 49 141 8 127 -33 c 1
 114 9 100 50 86 91 c 1
31 -26 m 1
 50 -26 70 -26 89 -26 c 1
 79 -3 69 20 60 44 c 1
 50 21 40 -2 31 -26 c 1
0 -51 m 1
 20 -2 40 47 60 96 c 1
 80 46 100 -3 121 -51 c 1
 81 -51 40 -51 0 -51 c 1
EndSplineSet
Validated: 1
EndChar

StartChar: n
Encoding: 110 110 39
Width: 256
Flags: HW
LayerCount: 2
Fore
SplineSet
138 -14 m 1
 145 -10 l 1
 151 -6 l 1
 140 25 130 55 119 86 c 1
 128 36 l 1
 138 -14 l 1
137 -51 m 1
 121 31 105 112 88 193 c 1
 115 118 142 43 169 -33 c 1
 158 -39 148 -45 137 -51 c 1
162 161 m 1
 167 127 171 92 176 58 c 1
 184 110 l 1
 191 161 l 1
 181 161 172 161 162 161 c 1
142 193 m 1
 165 193 187 193 210 193 c 1
 199 113 187 33 176 -47 c 1
 165 33 153 113 142 193 c 1
63 -21 m 1
 74 -21 85 -21 96 -21 c 1
 87 37 l 1
 79 95 l 1
 74 56 68 18 63 -21 c 1
46 -47 m 1
 57 33 69 113 80 193 c 1
 91 113 103 33 114 -47 c 1
 91 -47 69 -47 46 -47 c 1
EndSplineSet
Validated: 1
EndChar

StartChar: o
Encoding: 111 111 40
Width: 256
Flags: HW
LayerCount: 2
Fore
SplineSet
66 5 m 1
 107 5 148 5 189 5 c 1
 168 38 148 71 128 105 c 1
 107 72 87 38 66 5 c 1
37 -11 m 1
 67 39 97 89 128 138 c 1
 159 89 189 39 219 -11 c 1
 158 -11 98 -11 37 -11 c 1
EndSplineSet
Validated: 1
EndChar

StartChar: p
Encoding: 112 112 41
Width: 256
Flags: HW
LayerCount: 2
Fore
SplineSet
125 -31 m 1
 116 13 108 57 100 101 c 1
 91 57 83 13 75 -31 c 1
 92 -31 108 -31 125 -31 c 1
137 -53 m 1
 112 -53 87 -53 62 -53 c 1
 75 13 87 79 100 145 c 1
 112 79 124 13 137 -53 c 1
147 81 m 1
 171 97 196 114 220 130 c 1
 196 147 172 164 147 180 c 1
 147 147 147 114 147 81 c 1
135 56 m 1
 135 106 135 155 135 205 c 1
 172 181 208 156 244 131 c 1
 208 106 171 81 135 56 c 1
EndSplineSet
Validated: 1
EndChar

StartChar: q
Encoding: 113 113 42
Width: 256
Flags: HW
LayerCount: 2
Fore
SplineSet
48 -4 m 1
 68 -12 l 1
 87 -21 l 1
 95 -2 l 1
 104 16 l 1
 85 9 67 3 48 -4 c 1
33 -4 m 1
 61 6 88 16 116 26 c 1
 107 8 99 -11 91 -30 c 1
 72 -21 52 -13 33 -4 c 1
168 16 m 1
 179 56 189 95 200 135 c 1
 163 124 125 112 88 101 c 1
 115 73 142 45 168 16 c 1
176 -17 m 1
 136 26 96 68 56 110 c 1
 112 127 167 143 223 160 c 1
 208 101 192 42 176 -17 c 1
EndSplineSet
Validated: 1
EndChar

StartChar: r
Encoding: 114 114 43
Width: 256
Flags: HW
LayerCount: 2
Fore
SplineSet
122 25 m 1
 134 -5 l 1
 147 -34 l 1
 168 -31 189 -29 210 -26 c 1
 180 -9 151 8 122 25 c 1
104 43 m 1
 147 17 191 -8 235 -33 c 1
 204 -37 172 -41 141 -45 c 1
 128 -16 116 13 104 43 c 1
87 -40 m 1
 78 36 l 1
 68 111 l 1
 62 61 56 10 50 -40 c 1
 62 -40 75 -40 87 -40 c 1
96 -51 m 1
 78 -51 59 -51 41 -51 c 1
 50 24 59 99 68 173 c 1
 77 98 87 24 96 -51 c 1
109 74 m 1
 127 91 146 107 165 123 c 1
 146 140 128 156 109 173 c 1
 109 140 109 107 109 74 c 1
100 50 m 1
 100 99 100 148 100 197 c 1
 128 172 156 148 184 124 c 1
 156 99 128 75 100 50 c 1
EndSplineSet
Validated: 1
EndChar

StartChar: s
Encoding: 115 115 44
Width: 265
Flags: HW
LayerCount: 2
Fore
SplineSet
177 101 m 1
 197 117 216 133 235 150 c 1
 189 147 142 143 96 140 c 1
 122 126 149 113 177 101 c 1
181 86 m 1
 140 105 99 125 59 145 c 1
 92 124 125 103 158 82 c 1
 140 66 122 51 103 36 c 1
 88 72 74 109 59 145 c 1
 163 152 l 1
 267 160 l 1
 238 135 210 111 181 86 c 1
144 82 m 1
 121 96 99 110 77 124 c 1
 87 99 97 75 107 50 c 1
 119 61 131 72 144 82 c 1
130 27 m 1
 153 13 175 -1 198 -15 c 1
 188 10 178 34 168 59 c 1
 155 48 143 38 130 27 c 1
116 27 m 1
 135 42 153 57 171 73 c 1
 186 37 200 0 215 -36 c 1
 183 -14 150 7 116 27 c 1
97 8 m 1
 78 -8 59 -25 40 -41 c 1
 86 -38 133 -34 179 -31 c 1
 152 -18 125 -5 97 8 c 1
93 23 m 1
 133 3 174 -17 215 -36 c 1
 111 -43 l 1
 7 -51 l 1
 36 -26 64 -2 93 23 c 1
EndSplineSet
Validated: 5
EndChar

StartChar: t
Encoding: 116 116 45
Width: 256
Flags: HW
LayerCount: 2
Fore
SplineSet
161 153 m 1
 179 157 196 161 214 165 c 1
 187 171 l 1
 161 176 l 1
 161 168 161 161 161 153 c 1
144 140 m 1
 144 156 144 173 144 189 c 1
 181 181 218 173 255 165 c 1
 200 152 l 1
 144 140 l 1
94 153 m 1
 94 161 94 168 94 176 c 1
 68 171 l 1
 41 165 l 1
 59 161 76 157 94 153 c 1
111 140 m 1
 74 148 37 156 0 165 c 1
 37 173 74 181 111 189 c 1
 111 173 111 156 111 140 c 1
114 97 m 1
 121 57 l 1
 127 17 l 1
 131 44 135 70 139 97 c 1
 131 97 122 97 114 97 c 1
101 122 m 1
 119 122 137 122 155 122 c 1
 145 65 136 7 128 -51 c 1
 119 6 110 64 101 122 c 1
EndSplineSet
Validated: 1
EndChar

StartChar: u
Encoding: 117 117 46
Width: 256
Flags: HW
LayerCount: 2
Fore
SplineSet
207 91 m 1
 187 64 167 38 147 12 c 1
 171 5 l 1
 195 -3 l 1
 199 28 203 60 207 91 c 1
220 123 m 1
 211 53 l 1
 203 -17 l 1
 179 -10 155 -2 131 5 c 1
 161 44 191 83 220 123 c 1
178 -21 m 1
 148 -21 118 -21 88 -21 c 1
 103 -28 118 -35 133 -43 c 1
 148 -35 163 -28 178 -21 c 1
203 -17 m 1
 180 -29 156 -40 132 -51 c 1
 108 -40 84 -28 60 -17 c 1
 108 -17 155 -17 203 -17 c 1
56 91 m 1
 60 60 64 28 68 -3 c 1
 92 5 l 1
 116 12 l 1
 96 38 76 64 56 91 c 1
43 123 m 1
 72 84 102 44 131 5 c 1
 107 -2 84 -10 60 -17 c 1
 51 53 l 1
 43 123 l 1
EndSplineSet
Validated: 5
EndChar

StartChar: v
Encoding: 118 118 47
Width: 256
Flags: HW
LayerCount: 2
Fore
SplineSet
90 124 m 1
 103 80 115 36 128 -8 c 1
 141 36 153 80 165 124 c 1
 140 124 115 124 90 124 c 1
72 145 m 1
 109 145 147 145 184 145 c 1
 165 80 147 14 128 -51 c 1
 109 14 91 80 72 145 c 1
EndSplineSet
Validated: 1
EndChar

StartChar: w
Encoding: 119 119 48
Width: 256
Flags: HW
LayerCount: 2
Fore
SplineSet
165 71 m 1
 174 47 184 23 194 0 c 1
 203 24 213 48 223 71 c 1
 204 71 184 71 165 71 c 1
134 96 m 1
 174 96 214 96 254 96 c 1
 234 47 214 -2 194 -51 c 1
 174 -2 154 47 134 96 c 1
109 -22 m 1
 121 -22 133 -22 145 -22 c 1
 139 -4 133 13 127 31 c 1
 121 13 115 -4 109 -22 c 1
86 -46 m 1
 100 -5 114 36 127 78 c 1
 141 37 155 -4 168 -46 c 1
 141 -46 113 -46 86 -46 c 1
31 71 m 1
 40 47 50 23 60 0 c 1
 69 24 79 48 89 71 c 1
 70 71 50 71 31 71 c 1
0 96 m 1
 40 96 81 96 121 96 c 1
 100 47 80 -2 60 -51 c 1
 40 -2 20 47 0 96 c 1
EndSplineSet
Validated: 1
EndChar

StartChar: x
Encoding: 120 120 49
Width: 256
Flags: HW
LayerCount: 2
Fore
SplineSet
153 8 m 1
 174 -1 194 -11 214 -21 c 1
 204 -1 194 19 184 39 c 1
 174 29 163 18 153 8 c 1
100 8 m 1
 85 24 l 1
 69 39 l 1
 60 19 50 -1 40 -21 c 1
 60 -11 80 -1 100 8 c 1
153 119 m 1
 169 104 l 1
 184 88 l 1
 194 108 204 128 214 148 c 1
 193 139 173 129 153 119 c 1
100 119 m 1
 80 129 60 139 40 148 c 1
 50 128 60 108 69 88 c 1
 79 98 90 109 100 119 c 1
127 6 m 1
 146 26 165 45 184 64 c 1
 203 27 222 -11 240 -49 c 1
 203 -30 165 -12 127 6 c 1
127 6 m 1
 89 -12 51 -30 14 -49 c 1
 33 -12 51 26 69 64 c 1
 88 45 108 25 127 6 c 1
184 64 m 1
 165 83 146 102 127 122 c 1
 164 140 202 158 240 176 c 1
 221 139 203 101 184 64 c 1
69 64 m 1
 51 102 33 139 14 176 c 1
 51 158 89 140 127 122 c 1
 108 103 88 83 69 64 c 1
EndSplineSet
Validated: 5
EndChar

StartChar: y
Encoding: 121 121 50
Width: 256
Flags: HW
LayerCount: 2
Fore
SplineSet
166 118 m 1
 182 120 l 1
 199 123 l 1
 208 138 l 1
 216 153 l 1
 200 141 183 129 166 118 c 1
90 118 m 1
 73 129 56 141 40 153 c 1
 48 138 l 1
 57 123 l 1
 74 120 l 1
 90 118 l 1
118 -30 m 1
 125 -30 132 -30 139 -30 c 1
 133 15 l 1
 128 60 l 1
 125 30 121 0 118 -30 c 1
107 -51 m 1
 114 0 121 51 128 102 c 1
 135 51 142 0 149 -51 c 1
 135 -51 121 -51 107 -51 c 1
128 102 m 1
 86 109 l 1
 44 115 l 1
 29 140 15 166 0 191 c 1
 42 161 85 131 128 102 c 1
128 102 m 1
 171 131 214 161 256 191 c 1
 241 166 227 140 212 115 c 1
 170 109 l 1
 128 102 l 1
EndSplineSet
Validated: 5
EndChar

StartChar: z
Encoding: 122 122 51
Width: 256
Flags: HW
LayerCount: 2
Fore
SplineSet
87 101 m 1
 115 114 142 127 169 140 c 1
 123 143 76 147 30 150 c 1
 49 134 68 117 87 101 c 1
83 86 m 1
 54 111 26 135 -3 160 c 1
 101 152 l 1
 205 145 l 1
 165 125 124 105 83 86 c 1
121 82 m 1
 133 71 145 60 158 50 c 1
 168 75 178 99 188 124 c 1
 165 110 143 96 121 82 c 1
106 82 m 1
 140 102 173 123 205 145 c 1
 190 109 176 72 161 36 c 1
 143 52 125 67 106 82 c 1
134 27 m 1
 121 37 109 48 97 59 c 1
 87 34 77 10 67 -15 c 1
 89 -1 111 13 134 27 c 1
148 27 m 1
 115 6 82 -15 50 -36 c 1
 91 -17 131 3 171 23 c 1
 200 -2 228 -26 257 -51 c 1
 153 -43 l 1
 50 -36 l 1
 64 1 78 37 93 73 c 1
 112 58 130 43 148 27 c 1
167 8 m 1
 139 -4 112 -17 86 -31 c 1
 132 -34 179 -38 225 -41 c 1
 206 -24 187 -8 167 8 c 1
EndSplineSet
Validated: 5
EndChar

StartChar: space
Encoding: 32 32 52
Width: 256
Flags: HW
LayerCount: 2
Fore
SplineSet
248 112 m 26
 0 111 l 1050
EndSplineSet
Validated: 3
EndChar
